<?xml version="1.0" encoding="UTF-8" standalone="no"?>
<svg
   xmlns:dc="http://purl.org/dc/elements/1.1/"
   xmlns:cc="http://creativecommons.org/ns#"
   xmlns:rdf="http://www.w3.org/1999/02/22-rdf-syntax-ns#"
   xmlns:svg="http://www.w3.org/2000/svg"
   xmlns="http://www.w3.org/2000/svg"
   id="svg3721"
   version="1.1"
   viewBox="0 0 204.59521 36.222736"
   height="36.222736mm"
   width="204.59521mm">
  <title
     id="title3748">The Tanked</title>
  <defs
     id="defs3715" />
  <metadata
     id="metadata3718">
    <rdf:RDF>
      <cc:Work
         rdf:about="">
        <dc:format>image/svg+xml</dc:format>
        <dc:type
           rdf:resource="http://purl.org/dc/dcmitype/StillImage" />
        <dc:title>The Tanked</dc:title>
      </cc:Work>
    </rdf:RDF>
  </metadata>
  <g
     transform="translate(-1.0671414,-1.9743098)"
     id="layer1">
    <path
       id="path3745"
       d="m 192.90433,38.048662 c -4.14239,-0.04106 -7.62598,-0.169021 -7.74133,-0.284363 -0.26253,-0.262536 0.83253,-33.1708314 1.11381,-33.4715974 0.28379,-0.303448 7.09615,0.500235 12.98585,1.531995 4.02455,0.705024 3.92075,0.663929 4.89295,1.937177 l 0.91054,1.1924997 0.0661,7.0395567 c 0.0364,3.871756 0.03,8.152095 -0.0141,9.511863 -0.0605,1.863357 0.0179,2.622158 0.31838,3.080694 0.39835,0.607957 0.27373,1.481167 -0.40588,2.84393 -0.12601,0.252688 -0.22912,1.448914 -0.22912,2.658282 0,2.196616 -0.001,2.199849 -1.00334,3.178591 -0.88712,0.866245 -1.13997,0.972574 -2.18281,0.917882 -0.64871,-0.03402 -4.5687,-0.09545 -8.71109,-0.13651 z m 5.31012,-1.732086 c -0.33959,-0.339591 -0.68396,-0.07713 -0.43255,0.329665 0.0974,0.157575 0.29827,0.21159 0.44642,0.120031 0.18071,-0.111686 0.17615,-0.259678 -0.0139,-0.449696 z m -5.17596,-4.666528 c -0.0959,-0.155202 -0.30102,-0.282186 -0.45577,-0.282186 -0.17544,0 -0.15537,0.151812 0.0533,0.40327 0.36289,0.43725 0.68721,0.339672 0.40245,-0.121084 z m 4.15751,-9.741041 c 0.0791,-4.329245 0.0666,-7.949915 -0.0279,-8.045934 -0.0945,-0.09602 -0.70755,-0.215082 -1.3624,-0.264584 l -1.19062,-0.09 -0.20448,7.797084 c -0.11247,4.288395 -0.14597,7.949567 -0.0745,8.135937 0.0811,0.21145 0.61616,0.338855 1.42297,0.338855 h 1.29294 z m -45.54097,15.808855 -1.68508,-0.132292 0.0448,-3.439583 c 0.0246,-1.891771 0.15735,-4.624748 0.29492,-6.073283 0.13757,-1.448536 0.14952,-2.734308 0.0266,-2.85727 -0.12296,-0.122963 -1.0452,-0.187955 -2.04942,-0.144426 l -1.82586,0.07915 -0.2049,3.175 c -0.1127,1.74625 -0.23934,3.65125 -0.28144,4.233334 -0.0421,0.582083 -0.0987,1.981067 -0.12582,3.108854 l -0.0493,2.050521 -3.77031,-0.004 c -2.07367,-0.0021 -3.88937,-0.09153 -4.03489,-0.198438 -0.17023,-0.125063 -0.20625,-1.94001 -0.10102,-5.089178 0.32461,-9.714213 1.42756,-29.5928614 1.65452,-29.8198294 0.0792,-0.07916 1.84561,-0.158883 3.92542,-0.177156 l 3.78149,-0.03323 v 2.116667 c 0,1.164167 -0.0979,4.2300267 -0.2176,6.8130204 l -0.21761,4.696355 h 2.00355 c 1.89377,0 2.00494,-0.03262 2.02913,-0.595313 0.0141,-0.327422 0.1629,-3.33375 0.33073,-6.6807287 l 0.30514,-6.0854167 3.77581,-0.07344 c 4.36567,-0.08492 4.17435,-0.205832 4.09328,2.586985 -0.08,2.75726 -0.49193,11.5037324 -0.54478,11.5687264 -0.0266,0.03264 -0.76671,0.894094 -1.64481,1.914333 l -1.59653,1.854981 1.49062,1.789834 1.49063,1.789834 -0.17726,2.38125 c -0.0975,1.309687 -0.26908,4.296844 -0.38131,6.638129 -0.11223,2.341282 -0.29408,4.402539 -0.40411,4.580572 -0.20025,0.324004 -2.03699,0.332079 -5.93454,0.02609 z M 139.71407,18.948059 c 0,-0.312171 -0.51603,-0.646111 -0.70556,-0.456587 -0.18952,0.189525 0.14442,0.705556 0.45659,0.705556 0.13693,0 0.24897,-0.112036 0.24897,-0.248969 z m 4.91643,-9.5406147 c 0.20638,0 0.37523,-0.178594 0.37523,-0.396875 0,-0.218281 -0.14882,-0.398501 -0.33072,-0.400488 -0.18191,-0.002 -0.59862,-0.0754 -0.92605,-0.16315 -0.46837,-0.12552 -0.59531,-0.04953 -0.59531,0.356391 0,0.65389 0.26711,0.92435 0.73542,0.744642 0.20141,-0.07729 0.53505,-0.14052 0.74143,-0.14052 z m 16.90212,27.3441777 c -0.70903,-1.209866 -0.71598,-1.265526 -0.42148,-3.373107 0.16469,-1.178621 0.29928,-2.710109 0.2991,-3.403306 -1.9e-4,-0.693198 0.14736,-1.49687 0.32789,-1.785938 0.26125,-0.418325 0.26125,-0.632828 0,-1.051152 -0.47204,-0.755849 -0.40493,-2.909382 0.18754,-6.018675 0.34205,-1.795085 0.48601,-3.488081 0.42744,-5.026559 -0.0582,-1.529468 0.0274,-2.54561 0.25124,-2.982564 0.47517,-0.927421 0.55251,-2.143418 0.17971,-2.825587 -0.42253,-0.7731667 -0.39798,-1.8452857 0.0782,-3.4149264 0.2167,-0.714352 0.39712,-1.775071 0.40092,-2.357155 0.0123,-1.887496 -0.23034,-1.831839 6.38702,-1.464879 3.2532,0.180404 7.58179,0.464741 9.61909,0.63186 l 3.70416,0.303853 -0.0192,1.5875 c -0.0486,4.0213847 -0.20816,7.2663354 -0.37015,7.5284404 -0.12689,0.205308 -1.37886,0.210531 -4.39198,0.01832 -2.31798,-0.147866 -4.66621,-0.269268 -5.21829,-0.269784 l -1.00379,-9.38e-4 0.0777,1.918229 0.0777,1.918229 4.58297,0.164428 c 2.52063,0.09044 4.68194,0.269029 4.8029,0.396875 0.12097,0.127846 0.1547,1.647024 0.075,3.375952 l -0.14498,3.143505 -4.92251,-0.100797 -4.9225,-0.100796 -0.0814,1.124479 c -0.0554,0.765628 -0.20316,1.124479 -0.46302,1.124479 -0.49891,0 -0.48144,0.307885 0.0814,1.433383 l 0.46302,0.925965 5.15937,0.0771 5.15938,0.0771 0.0842,2.645834 c 0.0463,1.455208 0.006,3.625178 -0.0893,4.822153 l -0.17356,2.176317 -9.74143,0.0062 -9.74142,0.0062 z m 5.4633,-0.961911 c -0.21608,-0.216078 -0.29435,-0.186468 -0.29435,0.111344 0,0.525955 0.35578,0.88174 0.48727,0.487276 0.0558,-0.167349 -0.031,-0.43673 -0.19292,-0.59862 z m 8.70148,0.07607 c 0,-0.14552 -0.11906,-0.264583 -0.26458,-0.264583 -0.14552,0 -0.26459,0.119063 -0.26459,0.264583 0,0.145521 0.11907,0.264584 0.26459,0.264584 0.14552,0 0.26458,-0.119063 0.26458,-0.264584 z M 167.42917,7.6531846 c 0.82429,-0.220901 0.74404,-0.523374 -0.22883,-0.862519 -0.98905,-0.344785 -1.28991,-0.20849 -1.10453,0.500379 0.14621,0.559124 0.37075,0.620109 1.33336,0.36214 z m 10.12031,-0.362404 c 0,-0.14552 -0.0525,-0.264583 -0.11667,-0.264583 -0.0642,0 -0.19026,0.119063 -0.2802,0.264583 -0.0899,0.145521 -0.0374,0.264584 0.11668,0.264584 0.1541,0 0.28019,-0.119063 0.28019,-0.264584 z m -60.98645,30.2312634 -2.11667,-0.09866 -0.49729,-1.069499 c -0.42929,-0.923269 -0.46808,-1.382464 -0.28369,-3.358489 0.11747,-1.258943 0.20089,-2.646177 0.18536,-3.08274 -0.0155,-0.436562 0.0931,-1.18523 0.24139,-1.663705 0.20638,-0.665925 0.18136,-1.007213 -0.10668,-1.455208 -0.29753,-0.462751 -0.33211,-1.07709 -0.1652,-2.935031 0.11609,-1.292378 0.36046,-2.780659 0.54303,-3.307292 0.18257,-0.526633 0.35892,-2.445795 0.39189,-4.264806 0.033,-1.81901 0.13978,-3.828708 0.23735,-4.465994 0.10536,-0.688147 0.048,-1.55065 -0.14112,-2.1238397 -0.25928,-0.785629 -0.24045,-1.343108 0.10124,-2.9973297 0.23087,-1.117707 0.41976,-2.440046 0.41976,-2.938531 0,-1.156095 0.24663,-1.224364 4.44007,-1.229026 2.5695,-0.0029 3.27971,0.07522 3.39402,0.373105 0.0795,0.207194 0.0225,3.443435 -0.12661,7.1916454 -0.14915,3.748211 -0.20006,6.929987 -0.11315,7.070613 0.0869,0.140627 0.73085,-1.875224 1.43098,-4.479667 0.70012,-2.604443 1.60666,-5.9259754 2.01453,-7.3811844 l 0.74156,-2.645836 h 4.34145 4.34145 l -0.11183,3.307292 c -0.13742,4.0637274 -0.14281,9.1796894 -0.0152,14.4197914 0.0532,2.182812 0.0128,4.580827 -0.0897,5.328923 -0.13399,0.977823 -0.0789,1.565386 0.19611,2.0902 0.40865,0.779934 0.31509,1.286193 -0.63364,3.428794 -0.268,0.60525 -0.55931,2.191044 -0.68047,3.704167 l -0.21184,2.645833 h -3.83646 -3.83646 v -2.38125 c 0,-1.309687 0.0911,-4.992524 0.20249,-8.184081 0.11137,-3.191559 0.13488,-5.735234 0.0523,-5.652612 -0.0826,0.08262 -0.51399,1.503271 -0.95861,3.156998 -0.44461,1.653728 -0.93451,3.24449 -1.08867,3.535029 -0.15415,0.290539 -0.30515,0.844378 -0.33554,1.230752 -0.0554,0.703908 -0.37284,1.851319 -1.67287,6.046206 l -0.69697,2.248958 -1.71979,0.01757 c -0.94589,0.0097 -2.6723,-0.02683 -3.83646,-0.08109 z M 89.240943,36.099628 c -0.317402,-0.751271 -0.514019,-1.468009 -0.436925,-1.59275 0.0771,-0.124743 0.20065,-1.626192 0.274564,-3.336557 0.151794,-3.512553 0.151561,-3.534521 -0.06235,-5.887876 -0.101034,-1.111496 0.0086,-2.709099 0.309997,-4.516788 0.344683,-2.067405 0.395737,-2.99948 0.195723,-3.573247 -0.164241,-0.471137 -0.179285,-1.023109 -0.03827,-1.404297 0.143208,-0.387135 0.130148,-0.751168 -0.03405,-0.949015 -0.146507,-0.176532 -0.201514,-0.385832 -0.122234,-0.465112 0.07928,-0.07928 0.184782,-2.194178 0.234447,-4.6997717 l 0.0903,-4.5556267 1.147326,-1.16904 1.147326,-1.16904 8.104663,0.01998 8.10465,0.01998 0.66348,0.713797 c 1.43242,1.541043 1.47458,1.733189 1.2886,5.8731717 -0.0948,2.1100517 -0.13488,4.7889577 -0.0891,5.9531247 0.0458,1.164167 0.10816,4.398616 0.1386,7.187665 0.0304,2.789048 0.14463,5.160376 0.25377,5.269617 0.32367,0.323964 0.2303,1.091324 -0.32501,2.671284 -0.30888,0.878819 -0.59599,2.611408 -0.70042,4.226724 l -0.17698,2.737419 h -1.01937 c -0.57732,0 -1.01936,-0.128783 -1.01936,-0.296978 0,-0.215313 -0.10137,-0.212858 -0.3686,0.0089 -0.24398,0.202486 -1.38449,0.280527 -3.37344,0.230833 l -3.00484,-0.07506 v -6.085417 -6.085417 h -0.793748 -0.793747 l -0.132292,6.085417 -0.132292,6.085417 -4.376663,0.07229 -4.376661,0.07229 z m 15.812707,-0.218234 c 0,-0.312171 -0.51603,-0.646112 -0.70556,-0.456589 -0.18952,0.189527 0.14442,0.705557 0.45659,0.705557 0.13694,0 0.24897,-0.112035 0.24897,-0.248968 z m -1.7286,-17.279679 c -0.0832,-0.327422 -0.37403,-1.250156 -0.64639,-2.050521 l -0.49521,-1.455208 0.83979,-0.744734 c 0.46188,-0.409604 1.17061,-0.943299 1.57494,-1.185989 1.27636,-0.766089 0.81949,-1.244277 -1.1888,-1.244277 -0.97098,0 -1.87016,-0.119063 -1.99819,-0.264583 -0.12803,-0.145521 -0.45625,-0.978959 -0.7294,-1.8520837 -0.698198,-2.2318887 -0.993798,-2.4945587 -1.417206,-1.259374 -0.187562,0.547135 -0.525737,1.5008067 -0.751503,2.1192697 l -0.410485,1.124479 h -1.948429 c -1.071637,0 -1.948429,0.107976 -1.948429,0.239946 0,0.182318 1.789909,1.78873 2.895251,2.598437 0.06442,0.04719 -0.149021,0.990433 -0.474313,2.096097 -0.325292,1.105663 -0.550143,2.051592 -0.499671,2.102065 0.05047,0.05047 0.889312,-0.443261 1.864085,-1.097187 l 1.772312,-1.188955 1.652938,1.320006 c 1.86375,1.488361 2.12379,1.589532 1.90871,0.742612 z m 4.10985,-1.256771 c 0,-0.14552 -0.0525,-0.264583 -0.11667,-0.264583 -0.0642,0 -0.19027,0.119063 -0.2802,0.264583 -0.0899,0.145521 -0.0374,0.264584 0.11667,0.264584 0.15411,0 0.2802,-0.119063 0.2802,-0.264584 z M 70.668905,36.070516 c -0.531103,-1.069568 -0.549111,-1.338326 -0.332639,-4.964896 0.189828,-3.180189 0.161078,-4.006676 -0.168566,-4.845868 -0.355026,-0.903811 -0.352322,-1.383919 0.02535,-4.500257 0.241749,-1.994796 0.385437,-4.791338 0.335579,-6.531217 l -0.08719,-3.042709 -2.603783,-0.132291 -2.603786,-0.132292 -0.07251,-4.5900264 -0.0725,-4.590028 1.326555,0.09211 c 0.914093,0.06347 1.367507,-0.01477 1.458264,-0.25165 0.09739,-0.254174 0.811096,-0.332055 2.738662,-0.298844 1.433823,0.0247 2.834294,-0.06841 3.112157,-0.206926 0.328813,-0.163911 1.659953,-0.128264 3.812497,0.102097 1.819011,0.194666 3.545417,0.259301 3.836459,0.143633 0.610621,-0.242678 2.440559,-0.218835 2.6945,0.03511 0.0945,0.0945 0.436957,0.171818 0.761014,0.171818 0.577323,0 0.593029,0.08689 0.779396,4.311919 0.104611,2.3715557 0.145656,4.5444454 0.09121,4.8286454 -0.08935,0.466391 -0.362871,0.524072 -2.80787,0.592129 l -2.708875,0.0754 -0.05543,1.908973 c -0.03048,1.049935 -0.0396,2.325692 -0.02026,2.835015 0.01934,0.509323 0.09901,3.041389 0.177046,5.626814 0.07803,2.585424 0.25386,4.900878 0.390729,5.145451 0.158064,0.282445 0.149997,0.691084 -0.02212,1.120061 -0.149029,0.371461 -0.345506,2.342258 -0.436618,4.37955 l -0.165655,3.704166 -4.410065,0.07245 -4.410061,0.07244 -0.561499,-1.130776 z m -37.874294,-1.71967 -1.747587,-0.095 -0.169058,-2.1716 c -0.09298,-1.194377 -0.16977,-3.444491 -0.170643,-5.000252 -7.94e-4,-1.555761 -0.112509,-2.897211 -0.248081,-2.981 -0.135575,-0.08379 -0.914572,-0.07382 -1.731108,0.02214 l -1.484611,0.174486 0.183747,4.989326 0.183748,4.989325 h -3.340637 -3.340637 l -0.405395,-0.783947 c -0.312257,-0.60384 -0.38306,-1.446983 -0.308179,-3.669888 0.05347,-1.587267 0.178173,-3.01693 0.277121,-3.177032 0.09895,-0.160102 -0.02287,-0.681543 -0.270707,-1.158758 -0.404881,-0.779611 -0.419839,-1.20331 -0.147388,-4.174958 0.166773,-1.819011 0.236424,-3.962136 0.15478,-4.762501 -0.08164,-0.800364 -0.121154,-1.693333 -0.0878,-1.984375 0.03336,-0.291041 0.0435,-1.124479 0.02253,-1.852083 -0.08853,-3.0730387 -0.0033,-6.3618354 0.169088,-6.5248954 0.102014,-0.09649 1.584465,-0.221844 3.294335,-0.278558 l 3.108854,-0.103115 0.01172,1.336618 c 0.0254,2.8942254 0.283983,9.0283874 0.394314,9.3535624 0.08212,0.242029 0.568735,0.320474 1.641282,0.264583 l 1.524558,-0.07944 -0.09308,-5.45045 -0.09308,-5.4504484 1.254488,-0.171947 c 0.689967,-0.09457 2.118301,-0.171946 3.174076,-0.171946 h 1.919589 l 0.166069,4.1671877 c 0.09134,2.2919527 0.402857,5.7745307 0.692269,7.7390617 0.289409,1.964532 0.521094,4.762501 0.51485,6.217709 -0.0062,1.455208 -0.0028,3.163708 0.0076,3.796665 0.0104,0.63296 -0.122587,1.321343 -0.295542,1.529739 -0.221052,0.266351 -0.26588,1.118526 -0.150908,2.8688 0.199366,3.035081 0.492231,2.870373 -4.610558,2.592989 z m 0.138445,-7.906084 c 0.688237,-0.264102 0.474361,-0.633151 -0.366932,-0.633151 -0.58947,0 -0.747445,0.09902 -0.63315,0.396875 0.166415,0.433668 0.364024,0.480354 1.000082,0.236276 z m -8.577318,-7.776901 c 0,-0.145521 -0.119062,-0.264583 -0.264583,-0.264583 -0.145521,0 -0.264583,0.119062 -0.264583,0.264583 0,0.145521 0.119062,0.264584 0.264583,0.264584 0.145521,0 0.264583,-0.119063 0.264583,-0.264584 z m 10.31875,-0.264583 c 0,-0.145521 -0.0525,-0.264583 -0.116676,-0.264583 -0.06417,0 -0.190262,0.119062 -0.280199,0.264583 -0.08994,0.145521 -0.03743,0.264583 0.116676,0.264583 0.154109,0 0.280199,-0.119062 0.280199,-0.264583 z m 6.350069,15.549536 c -0.791173,-0.849222 -0.878192,-1.455541 -0.73656,-5.132064 0.07782,-2.020078 0.02604,-3.354534 -0.134009,-3.453448 -0.166717,-0.103037 -0.188735,-1.460177 -0.06102,-3.761053 0.1099,-1.979915 0.181446,-3.718909 0.158989,-3.864429 -0.128871,-0.835058 -0.05198,-3.815048 0.114733,-4.446599 0.136295,-0.516312 0.05053,-1.012533 -0.281609,-1.629269 C 39.65906,10.874874 39.641425,10.58364 39.921767,8.9688003 40.094619,7.9731276 40.264614,6.8234096 40.299534,6.4138706 l 0.06349,-0.744615 7.931695,0.02443 c 5.005549,0.01542 8.031443,0.124002 8.202083,0.294327 0.158769,0.158476 0.270389,1.82108 0.270389,4.0274724 v 3.75758 l -4.262927,-0.100022 c -3.072667,-0.07209 -4.316535,-0.01328 -4.454922,0.210631 -0.105598,0.17086 -0.110874,0.900479 -0.01172,1.621377 l 0.180268,1.310723 h 3.928306 c 2.160569,0 3.986591,0.09431 4.057827,0.209569 0.112858,0.182606 0.263422,4.335376 0.192249,5.30248 -0.0205,0.278492 -0.818999,0.342834 -3.796268,0.305895 -2.073672,-0.02573 -3.91914,-0.0356 -4.101042,-0.02195 -0.195204,0.01466 -0.330729,0.395267 -0.330729,0.928828 0,0.497196 -0.139377,0.950452 -0.309726,1.007235 -0.214561,0.07152 -0.156387,0.362825 0.189338,0.948089 l 0.499065,0.844849 3.448683,0.05154 c 4.52279,0.06759 4.740566,0.08087 5.114448,0.311947 0.224624,0.138827 0.318609,1.324001 0.318609,4.017756 v 3.820843 h -7.927192 c -7.859114,0 -7.931914,-0.0051 -8.476906,-0.590048 z m 4.354256,-0.714586 c 0.08373,-0.135467 0.03122,-0.321088 -0.116676,-0.412491 -0.147894,-0.0914 -0.268899,0.01942 -0.268899,0.246301 0,0.464748 0.158766,0.533177 0.385575,0.16619 z M 43.996018,9.2751533 c -0.111749,-0.415394 -1.38403,-0.678116 -1.38403,-0.285799 0,0.181443 0.0844,0.414293 0.18755,0.517446 0.273966,0.273964 1.280097,0.07917 1.19648,-0.231647 z M 5.1746291,33.486814 c -0.3316666,-0.641373 -0.3922718,-1.413941 -0.2963473,-3.77771 0.073445,-1.809832 0.00612,-3.303519 -0.172224,-3.820888 -0.2220507,-0.644168 -0.2031349,-1.379453 0.078276,-3.042709 0.204097,-1.206299 0.3751416,-3.422492 0.3800991,-4.924873 l 0.00901,-2.731602 -1.0583334,0.156877 c -0.5820792,0.08628 -1.5048136,0.213445 -2.0505167,0.282584 L 1.0724052,15.754202 V 12.1774 c 0,-4.1912844 -0.31065546,-3.8318527 3.8411246,-4.4442334 1.4014948,-0.206719 2.6822056,-0.509885 2.846024,-0.673704 0.179977,-0.179977 1.3178176,-0.297851 2.8751532,-0.297851 1.511188,0 2.648176,-0.114678 2.74864,-0.277232 0.222022,-0.359239 3.107177,-0.254677 3.361569,0.121828 0.106912,0.158233 0.196209,1.9248047 0.198437,3.9257154 0.003,2.720131 -0.07939,3.645722 -0.326677,3.668541 -0.181901,0.01678 -0.449792,0.05818 -0.595313,0.09199 -0.145521,0.03381 -0.960245,0.07961 -1.810499,0.101772 l -1.545915,0.0403 0.164577,6.001467 c 0.09092,3.315605 0.282075,6.143046 0.427123,6.317816 0.175476,0.211437 0.156549,0.568328 -0.05707,1.076137 -0.176577,0.419757 -0.327135,2.003095 -0.336417,3.537914 l -0.0168,2.778125 -3.6274004,0.07354 -3.627401,0.07354 z"
       style="fill:#000000;stroke-width:0.26458335" />
  </g>
</svg>
